<?xml version="1.0" encoding="UTF-8" standalone="no"?>
<svg
   height="16px"
   viewBox="0 0 16 16"
   width="16px"
   version="1.1"
   id="svg314"
   sodipodi:docname="eye-symbolic.svg"
   inkscape:version="1.3-dev (38c78120, 2022-04-12)"
   xmlns:inkscape="http://www.inkscape.org/namespaces/inkscape"
   xmlns:sodipodi="http://sodipodi.sourceforge.net/DTD/sodipodi-0.dtd"
   xmlns="http://www.w3.org/2000/svg"
   xmlns:svg="http://www.w3.org/2000/svg">
  <defs
     id="defs318" />
  <sodipodi:namedview
     id="namedview316"
     pagecolor="#505050"
     bordercolor="#eeeeee"
     borderopacity="1"
     inkscape:pageshadow="0"
     inkscape:pageopacity="0"
     inkscape:pagecheckerboard="0"
     inkscape:deskcolor="#505050"
     showgrid="false"
     inkscape:zoom="64.1875"
     inkscape:cx="5.600779"
     inkscape:cy="8"
     inkscape:window-width="2560"
     inkscape:window-height="1341"
     inkscape:window-x="-9"
     inkscape:window-y="-9"
     inkscape:window-maximized="1"
     inkscape:current-layer="svg314" />
  <g
     fill="#222222"
     id="g312"
     style="fill:#ffffff;fill-opacity:1">
    <path
       d="m 8 2 c -3.648438 0.003906 -6.832031 2.476562 -7.738281 6.007812 c 0.914062 3.527344 4.097656 5.988282 7.738281 5.992188 c 3.648438 -0.003906 6.832031 -2.476562 7.738281 -6.011719 c -0.914062 -3.523437 -4.097656 -5.984375 -7.738281 -5.988281 z m 0 2 c 2.210938 0 4 1.789062 4 4 s -1.789062 4 -4 4 s -4 -1.789062 -4 -4 s 1.789062 -4 4 -4 z m 0 0"
       id="path308"
       style="fill:#ffffff;fill-opacity:1" />
    <path
       d="m 10 8 c 0 1.105469 -0.894531 2 -2 2 s -2 -0.894531 -2 -2 s 0.894531 -2 2 -2 s 2 0.894531 2 2 z m 0 0"
       id="path310"
       style="fill:#ffffff;fill-opacity:1" />
  </g>
</svg>
